<svg width="1024" height="1024" viewBox="0 0 1024 1024" fill="none" xmlns="http://www.w3.org/2000/svg">
  <rect width="1024" height="1024" rx="232" fill="#1F6F5B"/>
  <rect x="132" y="132" width="760" height="760" rx="180" fill="#FFFDF7"/>
  <rect x="212" y="212" width="600" height="600" rx="108" fill="#C9F0DF"/>
  <rect x="264" y="264" width="496" height="496" rx="84" fill="#F6F3EA"/>
  <circle cx="665" cy="375" r="68" fill="#F9E287"/>
  <path d="M332 676C387.667 590.667 445 548 504 548C563 548 611.667 584.333 650 657L692 760H332V676Z" fill="#6F5F17"/>
  <path d="M332 708C385.333 635.333 440 599 496 599C552 599 600.333 632 641 698L677 760H332V708Z" fill="#1F6F5B"/>
  <path d="M507 344L548.784 428.661L642.214 442.242L574.607 508.133L590.568 601.186L507 557.258L423.432 601.186L439.393 508.133L371.786 442.242L465.216 428.661L507 344Z" fill="#1F6F5B"/>
  <rect x="264" y="264" width="496" height="496" rx="84" stroke="#002019" stroke-width="24"/>
  <rect x="212" y="212" width="600" height="600" rx="108" stroke="#002019" stroke-width="28" opacity="0.18"/>
</svg>
